<svg height="512pt" viewBox="0 -30 512 511" width="512pt" xmlns="http://www.w3.org/2000/svg"><path d="m271 182.261719v-22.761719c0-24.839844 20.207031-45.046875 45.046875-45.046875 41.382813 0 75.050781-33.667969 75.050781-75.050781v-38.902344h-30v38.902344c0 24.839844-20.210937 45.050781-45.050781 45.050781-41.378906 0-75.046875 33.664063-75.046875 75.046875v22.761719h-241v270.191406h512v-270.191406zm211 240.191406h-452v-210.191406h452zm0 0"/><path d="m60.84375 242.308594h30.023438v30h-30.023438zm0 0"/><path d="m120.890625 242.308594h30.023437v30h-30.023437zm0 0"/><path d="m180.941406 242.308594h30.023438v30h-30.023438zm0 0"/><path d="m240.988281 242.308594h30.023438v30h-30.023438zm0 0"/><path d="m301.035156 242.308594h30.023438v30h-30.023438zm0 0"/><path d="m361.085938 242.308594h30.023437v30h-30.023437zm0 0"/><path d="m421.132812 242.308594h30.023438v30h-30.023438zm0 0"/><path d="m60.84375 302.355469h30.023438v30h-30.023438zm0 0"/><path d="m120.890625 302.355469h30.023437v30h-30.023437zm0 0"/><path d="m180.941406 302.355469h30.023438v30h-30.023438zm0 0"/><path d="m240.988281 302.355469h30.023438v30h-30.023438zm0 0"/><path d="m301.035156 302.355469h30.023438v30h-30.023438zm0 0"/><path d="m361.085938 302.355469h30.023437v30h-30.023437zm0 0"/><path d="m421.132812 302.355469h30.023438v30h-30.023438zm0 0"/><path d="m60.84375 362.402344h30.023438v30h-30.023438zm0 0"/><path d="m120.890625 362.402344h30.023437v30h-30.023437zm0 0"/><path d="m180.941406 362.402344h150.117188v30h-150.117188zm0 0"/><path d="m361.085938 362.402344h90.070312v30h-90.070312zm0 0"/></svg>